<svg xmlns="http://www.w3.org/2000/svg" height="800" width="1200" viewBox="-30.0003 -50 260.0026 300"><path d="M0 0c-35.143 0-63.634-28.499-63.634-63.633 0-35.143 28.491-63.634 63.634-63.634 35.133 0 63.633 28.491 63.633 63.634C63.633-28.499 35.133 0 0 0z" transform="matrix(1.55235 0 0 -1.55233 100.002 1.22)" stroke-width="1.572" stroke="#6e3075" fill="#f2e930"/><path stroke-width=".397" stroke="#fff" fill="#6e3075" d="M153.76 200.37l-.023-.173c-.325-3.903-.325-6.935.677-9.004 1.865-3.807 5.962-6.493 10.43-6.82a28.011 28.011 0 011.79-.06c6.31 0 10.35 2.378 10.793 6.377.196 1.777-.268 3.363-1.288 4.33-.83.79-1.884 1.216-3.099 1.216-2.29 0-4.369-1.508-4.636-3.361-.115-.718-.039-1.47.037-2.204.096-.948.192-1.834-.115-2.59-.405-1.006-1.287-1.605-2.464-1.605-1.441 0-2.887.872-3.368 2.011-.19.446-.287 1.063-.306 1.49-.076 1.853.44 3.783.983 5.834.363 1.393.749 2.84.96 4.329l.038.21H153.76zm11.814 8.155l-4.31-3.112v3.112h-2.982v-7.438h2.981v3.129l3.581-3.129h3.54l-3.81 3.516 5.078 3.922zm4.58-7.438h2.985v7.438h-2.985zm10.315 3.129c.171 0 1.04-.04 1.04-.734 0-.656-.773-.713-1.002-.713h-2.079v1.447zm-5.023 4.31v-7.439h5.944c1.425 0 3.1.58 3.1 2.242 0 2.51-3.078 2.53-3.12 2.53h-2.942v2.647h-2.982zm-25.229.095l-.019-.192-.019.192h-.19c-5.562-.077-5.623-2.586-5.623-2.706v-4.828h2.984v4.058c0 1.642 2.58 1.699 2.867 1.699.29 0 2.867-.038 2.867-1.7v-4.057h2.985v4.828c0 .12-.057 2.63-5.619 2.706zm3.983 10.627c-.306 0-.635.02-.96.058-1.195.139-2.193.755-2.694 1.604-.443.776-.481 1.682-.076 2.63.42 1.023 1.612 1.642 3.153 1.642 1.173 0 2.389-.388 3.138-.987.538-.426 1.674-1.95 1.558-2.86-.056-.386-.71-.946-1.31-1.33-.768-.503-1.732-.757-2.81-.757m15.282 8.444c-.348 0-.692-.02-1.04-.039-2.503-.21-4.078-1.485-5.6-2.744a24.29 24.29 0 00-1.463-1.14c-1.808 1.761-3.868 3.692-7.427 3.711h-.057c-2.194 0-4.02-.695-5.14-1.95-.98-1.1-1.384-2.551-1.193-4.309.347-3.247 3.1-5.182 7.353-5.182 1.036 0 2.133.12 3.234.37-.061-1.912-.81-5.777-1.464-6.936l-.153-.29h8.523l-.038.56c-.172 2.337-.462 6.22-1.058 8.29 1.578.79 4.215 1.564 6.696 1.564 1.808 0 3.29-.425 4.273-1.197.883-.717 1.44-1.661 1.808-3.093l.038-.153h1.828l-.02.21c-.211 3.75-.902 6.57-2.175 8.62-1.498 2.452-3.849 3.708-6.925 3.708" transform="matrix(3.6958 0 0 3.6806 -507.662 -663.828)"/><path fill="#fff" d="M100.334 6.814c13.925 0 25.584 2.802 35.99 8.33-11.18-4.653-21.292-6.083-36.013-6.083-12.406 0-26.965 2.023-36.619 6.022 9.2-4.863 24.598-8.269 36.642-8.269z"/></svg>